<svg width="40" height="36" viewBox="0 0 40 36" fill="none" xmlns="http://www.w3.org/2000/svg">
<path d="M37.7428 23.4252H2.25722C0.997375 23.4252 0 24.4382 0 25.6033V27.3761C0 28.5411 0.997375 29.5035 2.25722 29.5035H2.78215V30.0101C2.78215 32.796 5.14436 35.0247 7.979 35.0247H32.021C34.9081 35.0247 37.2178 32.7453 37.2178 30.0101V29.5035H37.7428C38.9501 29.5035 40 28.5411 40 27.3255V25.5526C40 24.4382 39.0026 23.4252 37.7428 23.4252ZM35.6955 30.0101C35.6955 31.9349 34.0682 33.5051 32.0735 33.5051H7.92651C5.93176 33.5051 4.30446 31.9349 4.30446 30.0101V29.5035H35.6955V30.0101ZM38.4252 27.3255C38.4252 27.68 38.1102 27.984 37.7428 27.984H2.25722C1.88976 27.984 1.5748 27.68 1.5748 27.3255V25.5526C1.5748 25.2487 1.88976 24.9448 2.25722 24.9448H37.7953C38.1627 24.9448 38.4777 25.2487 38.4777 25.6033V27.3255H38.4252Z" fill="#81B3D2"/>
<path d="M8.50395 20.1725L11.3386 22.1986L14.2257 20.1725L17.1129 22.1986L20 20.1725L22.8347 22.1986L25.7218 20.1725L28.6089 22.1986L31.4961 20.1725L34.3832 22.1986L37.6903 19.8179L36.7979 18.6023L34.3832 20.2738L31.4961 18.2477L28.6089 20.2738L25.7218 18.2477L22.8347 20.2738L20 18.2477L17.1129 20.2738L14.2257 18.2477L11.3386 20.2738L8.50395 18.2477L5.61682 20.2738L3.20212 18.6023L2.25723 19.8179L5.61682 22.1986L8.50395 20.1725Z" fill="#81B3D2"/>
<path d="M37.2179 16.7283C37.2179 16.4244 37.2704 15.4114 37.2179 15.2087C36.8504 7.30686 29.2913 0.97522 20 0.97522C10.7087 0.97522 3.09712 7.30686 2.72967 15.2087C2.72967 15.4114 2.72967 16.4244 2.72967 16.7283H37.2179ZM20 2.49481C28.399 2.49481 35.3281 8.16796 35.6431 15.2087H4.30447C4.67193 8.16796 11.6011 2.49481 20 2.49481Z" fill="#81B3D2"/>
<path d="M20 9.58631C20.5798 9.58631 21.0499 9.13274 21.0499 8.57324C21.0499 8.01374 20.5798 7.56018 20 7.56018C19.4202 7.56018 18.9501 8.01374 18.9501 8.57324C18.9501 9.13274 19.4202 9.58631 20 9.58631Z" fill="#81B3D2"/>
<path d="M15.8005 7.10388C16.3803 7.10388 16.8504 6.65032 16.8504 6.09082C16.8504 5.53132 16.3803 5.07776 15.8005 5.07776C15.2207 5.07776 14.7506 5.53132 14.7506 6.09082C14.7506 6.65032 15.2207 7.10388 15.8005 7.10388Z" fill="#81B3D2"/>
<path d="M24.1995 7.10388C24.7793 7.10388 25.2493 6.65032 25.2493 6.09082C25.2493 5.53132 24.7793 5.07776 24.1995 5.07776C23.6196 5.07776 23.1496 5.53132 23.1496 6.09082C23.1496 6.65032 23.6196 7.10388 24.1995 7.10388Z" fill="#81B3D2"/>
</svg>
