<svg width="25" height="14" viewBox="0 0 25 14" fill="none" xmlns="http://www.w3.org/2000/svg">
<path fill-rule="evenodd" clip-rule="evenodd" d="M24.1331 0.948C24.2991 0.402 24.1331 0 23.3381 0H20.7131C20.0451 0 19.7371 0.347 19.5701 0.73C19.5701 0.73 18.2351 3.926 16.3441 6.002C15.7321 6.604 15.4541 6.795 15.1201 6.795C14.9531 6.795 14.7021 6.604 14.7021 6.057V0.948C14.7021 0.292 14.5181 0 13.9621 0H9.83411C9.41711 0 9.16611 0.304 9.16611 0.593C9.16611 1.214 10.1121 1.358 10.2091 3.106V6.904C10.2091 7.737 10.0561 7.888 9.72211 7.888C8.8321 7.888 6.66711 4.677 5.38211 1.003C5.13311 0.288 4.88111 0 4.21011 0H1.58311C0.833105 0 0.683105 0.347 0.683105 0.73C0.683105 1.412 1.57311 4.8 4.82811 9.281C6.99811 12.341 10.0531 14 12.8361 14C14.5051 14 14.7111 13.632 14.7111 12.997V10.684C14.7111 9.947 14.8691 9.8 15.3981 9.8C15.7881 9.8 16.4551 9.992 18.0131 11.467C19.7931 13.216 20.0861 14 21.0881 14H23.7131C24.4631 14 24.8391 13.632 24.6231 12.904C24.3851 12.18 23.5351 11.129 22.4081 9.882C21.7961 9.172 20.8781 8.407 20.5991 8.024C20.2101 7.533 20.3211 7.314 20.5991 6.877C20.5991 6.877 23.7991 2.451 24.1321 0.948H24.1331Z" fill="white"/>
</svg>
