<svg width="40" height="36" fill="none" xmlns="http://www.w3.org/2000/svg"><path d="M37.743 23.425H2.257C.997 23.425 0 24.438 0 25.603v1.773c0 1.165.997 2.127 2.257 2.127h.525v.507c0 2.786 2.362 5.015 5.197 5.015h24.042c2.887 0 5.197-2.28 5.197-5.015v-.507h.525c1.207 0 2.257-.962 2.257-2.177v-1.773c0-1.115-.997-2.128-2.257-2.128Zm-2.047 6.585c0 1.925-1.628 3.495-3.622 3.495H7.927c-1.995 0-3.623-1.57-3.623-3.495v-.507h31.392v.507Zm2.73-2.684c0 .354-.316.658-.683.658H2.257c-.367 0-.682-.304-.682-.659v-1.772c0-.304.315-.608.682-.608h35.538c.368 0 .683.304.683.658v1.723h-.053ZM8.504 20.172l2.835 2.027 2.887-2.027 2.887 2.027L20 20.172l2.835 2.027 2.887-2.027 2.887 2.027 2.887-2.027 2.887 2.027 3.307-2.381-.892-1.216-2.415 1.672-2.887-2.026-2.887 2.026-2.887-2.026-2.887 2.026L20 18.248l-2.887 2.026-2.887-2.026-2.887 2.026-2.835-2.026-2.887 2.026-2.415-1.672-.945 1.216 3.36 2.38 2.887-2.026ZM37.218 16.728c0-.304.052-1.317 0-1.52C36.85 7.308 29.29.976 20 .976S3.097 7.307 2.73 15.21v1.52h34.488ZM20 2.495c8.399 0 15.328 5.673 15.643 12.714H4.304C4.672 8.168 11.601 2.495 20 2.495Z" fill="#81B3D2"/><path d="M20 9.586c.58 0 1.05-.453 1.05-1.013 0-.56-.47-1.013-1.05-1.013-.58 0-1.05.454-1.05 1.013 0 .56.47 1.013 1.05 1.013ZM15.8 7.104c.58 0 1.05-.454 1.05-1.013 0-.56-.47-1.013-1.05-1.013-.58 0-1.05.453-1.05 1.013 0 .56.47 1.013 1.05 1.013ZM24.2 7.104c.58 0 1.05-.454 1.05-1.013 0-.56-.47-1.013-1.05-1.013-.58 0-1.05.453-1.05 1.013 0 .56.47 1.013 1.05 1.013Z" fill="#81B3D2"/></svg>